<?xml version="1.0" encoding="utf-8" standalone="no"?>
<!DOCTYPE svg PUBLIC "-//W3C//DTD SVG 1.1//EN"
  "http://www.w3.org/Graphics/SVG/1.1/DTD/svg11.dtd">
<svg xmlns:xlink="http://www.w3.org/1999/xlink" width="460.8pt" height="345.6pt" viewBox="0 0 460.8 345.6" xmlns="http://www.w3.org/2000/svg" version="1.1">
 <metadata>
  <rdf:RDF xmlns:dc="http://purl.org/dc/elements/1.1/" xmlns:cc="http://creativecommons.org/ns#" xmlns:rdf="http://www.w3.org/1999/02/22-rdf-syntax-ns#">
   <cc:Work>
    <dc:type rdf:resource="http://purl.org/dc/dcmitype/StillImage"/>
    <dc:date>2025-08-22T19:36:50.515790</dc:date>
    <dc:format>image/svg+xml</dc:format>
    <dc:creator>
     <cc:Agent>
      <dc:title>Matplotlib v3.10.5, https://matplotlib.org/</dc:title>
     </cc:Agent>
    </dc:creator>
   </cc:Work>
  </rdf:RDF>
 </metadata>
 <defs>
  <style type="text/css">*{stroke-linejoin: round; stroke-linecap: butt}</style>
 </defs>
 <g id="figure_1">
  <g id="patch_1">
   <path d="M 0 345.6 
L 460.8 345.6 
L 460.8 0 
L 0 0 
z
" style="fill: #ffffff"/>
  </g>
  <g id="axes_1">
   <g id="patch_2">
    <path d="M 22.78 315.44 
L 453.192 315.44 
L 453.192 25.56 
L 22.78 25.56 
z
" style="fill: #ffffff"/>
   </g>
   <g id="line2d_1">
    <path d="M 36.868282 146.010823 
L 91.085051 107.16252 
L 159.390103 54.53222 
L 252.074282 36.202732 
L 344.758461 54.294929 
L 437.442641 36.125214 
" clip-path="url(#p400faf776f)" style="fill: none; stroke: #f5deb3; stroke-width: 10; stroke-linecap: square"/>
    <defs>
     <path id="m0fabb5775d" d="M -0 17.67767 
L 10.606602 0 
L 0 -17.67767 
L -10.606602 -0 
z
" style="stroke: #f5deb3; stroke-linejoin: miter"/>
    </defs>
    <g clip-path="url(#p400faf776f)">
     <use xlink:href="#m0fabb5775d" x="36.868282" y="146.010823" style="fill: #f5deb3; stroke: #f5deb3; stroke-linejoin: miter"/>
     <use xlink:href="#m0fabb5775d" x="91.085051" y="107.16252" style="fill: #f5deb3; stroke: #f5deb3; stroke-linejoin: miter"/>
     <use xlink:href="#m0fabb5775d" x="159.390103" y="54.53222" style="fill: #f5deb3; stroke: #f5deb3; stroke-linejoin: miter"/>
     <use xlink:href="#m0fabb5775d" x="252.074282" y="36.202732" style="fill: #f5deb3; stroke: #f5deb3; stroke-linejoin: miter"/>
     <use xlink:href="#m0fabb5775d" x="344.758461" y="54.294929" style="fill: #f5deb3; stroke: #f5deb3; stroke-linejoin: miter"/>
     <use xlink:href="#m0fabb5775d" x="437.442641" y="36.125214" style="fill: #f5deb3; stroke: #f5deb3; stroke-linejoin: miter"/>
    </g>
   </g>
   <g id="matplotlib.axis_1">
    <g id="xtick_1">
     <g id="line2d_2">
      <defs>
       <path id="mb1b8853718" d="M 0 0 
L 0 3.5 
" style="stroke: #000000; stroke-width: 0.8"/>
      </defs>
      <g>
       <use xlink:href="#mb1b8853718" x="36.868282" y="315.44" style="stroke: #000000; stroke-width: 0.8"/>
      </g>
     </g>
     <g id="text_1">
      <!-- 2 -->
      <g transform="translate(30.505782 337.636875) scale(0.2 -0.2)">
       <defs>
        <path id="DejaVuSans-32" d="M 1228 531 
L 3431 531 
L 3431 0 
L 469 0 
L 469 531 
Q 828 903 1448 1529 
Q 2069 2156 2228 2338 
Q 2531 2678 2651 2914 
Q 2772 3150 2772 3378 
Q 2772 3750 2511 3984 
Q 2250 4219 1831 4219 
Q 1534 4219 1204 4116 
Q 875 4013 500 3803 
L 500 4441 
Q 881 4594 1212 4672 
Q 1544 4750 1819 4750 
Q 2544 4750 2975 4387 
Q 3406 4025 3406 3419 
Q 3406 3131 3298 2873 
Q 3191 2616 2906 2266 
Q 2828 2175 2409 1742 
Q 1991 1309 1228 531 
z
" transform="scale(0.015625)"/>
       </defs>
       <use xlink:href="#DejaVuSans-32"/>
      </g>
     </g>
    </g>
    <g id="xtick_2">
     <g id="line2d_3">
      <g>
       <use xlink:href="#mb1b8853718" x="91.085051" y="315.44" style="stroke: #000000; stroke-width: 0.8"/>
      </g>
     </g>
     <g id="text_2">
      <!-- 3 -->
      <g transform="translate(84.722551 337.636875) scale(0.2 -0.2)">
       <defs>
        <path id="DejaVuSans-33" d="M 2597 2516 
Q 3050 2419 3304 2112 
Q 3559 1806 3559 1356 
Q 3559 666 3084 287 
Q 2609 -91 1734 -91 
Q 1441 -91 1130 -33 
Q 819 25 488 141 
L 488 750 
Q 750 597 1062 519 
Q 1375 441 1716 441 
Q 2309 441 2620 675 
Q 2931 909 2931 1356 
Q 2931 1769 2642 2001 
Q 2353 2234 1838 2234 
L 1294 2234 
L 1294 2753 
L 1863 2753 
Q 2328 2753 2575 2939 
Q 2822 3125 2822 3475 
Q 2822 3834 2567 4026 
Q 2313 4219 1838 4219 
Q 1578 4219 1281 4162 
Q 984 4106 628 3988 
L 628 4550 
Q 988 4650 1302 4700 
Q 1616 4750 1894 4750 
Q 2613 4750 3031 4423 
Q 3450 4097 3450 3541 
Q 3450 3153 3228 2886 
Q 3006 2619 2597 2516 
z
" transform="scale(0.015625)"/>
       </defs>
       <use xlink:href="#DejaVuSans-33"/>
      </g>
     </g>
    </g>
    <g id="xtick_3">
     <g id="line2d_4">
      <g>
       <use xlink:href="#mb1b8853718" x="159.390103" y="315.44" style="stroke: #000000; stroke-width: 0.8"/>
      </g>
     </g>
     <g id="text_3">
      <!-- 5 -->
      <g transform="translate(153.027603 337.636875) scale(0.2 -0.2)">
       <defs>
        <path id="DejaVuSans-35" d="M 691 4666 
L 3169 4666 
L 3169 4134 
L 1269 4134 
L 1269 2991 
Q 1406 3038 1543 3061 
Q 1681 3084 1819 3084 
Q 2600 3084 3056 2656 
Q 3513 2228 3513 1497 
Q 3513 744 3044 326 
Q 2575 -91 1722 -91 
Q 1428 -91 1123 -41 
Q 819 9 494 109 
L 494 744 
Q 775 591 1075 516 
Q 1375 441 1709 441 
Q 2250 441 2565 725 
Q 2881 1009 2881 1497 
Q 2881 1984 2565 2268 
Q 2250 2553 1709 2553 
Q 1456 2553 1204 2497 
Q 953 2441 691 2322 
L 691 4666 
z
" transform="scale(0.015625)"/>
       </defs>
       <use xlink:href="#DejaVuSans-35"/>
      </g>
     </g>
    </g>
    <g id="xtick_4">
     <g id="line2d_5">
      <g>
       <use xlink:href="#mb1b8853718" x="252.074282" y="315.44" style="stroke: #000000; stroke-width: 0.8"/>
      </g>
     </g>
     <g id="text_4">
      <!-- 10 -->
      <g transform="translate(239.349282 337.636875) scale(0.2 -0.2)">
       <defs>
        <path id="DejaVuSans-31" d="M 794 531 
L 1825 531 
L 1825 4091 
L 703 3866 
L 703 4441 
L 1819 4666 
L 2450 4666 
L 2450 531 
L 3481 531 
L 3481 0 
L 794 0 
L 794 531 
z
" transform="scale(0.015625)"/>
        <path id="DejaVuSans-30" d="M 2034 4250 
Q 1547 4250 1301 3770 
Q 1056 3291 1056 2328 
Q 1056 1369 1301 889 
Q 1547 409 2034 409 
Q 2525 409 2770 889 
Q 3016 1369 3016 2328 
Q 3016 3291 2770 3770 
Q 2525 4250 2034 4250 
z
M 2034 4750 
Q 2819 4750 3233 4129 
Q 3647 3509 3647 2328 
Q 3647 1150 3233 529 
Q 2819 -91 2034 -91 
Q 1250 -91 836 529 
Q 422 1150 422 2328 
Q 422 3509 836 4129 
Q 1250 4750 2034 4750 
z
" transform="scale(0.015625)"/>
       </defs>
       <use xlink:href="#DejaVuSans-31"/>
       <use xlink:href="#DejaVuSans-30" transform="translate(63.623047 0)"/>
      </g>
     </g>
    </g>
    <g id="xtick_5">
     <g id="line2d_6">
      <g>
       <use xlink:href="#mb1b8853718" x="344.758461" y="315.44" style="stroke: #000000; stroke-width: 0.8"/>
      </g>
     </g>
     <g id="text_5">
      <!-- 20 -->
      <g transform="translate(332.033461 337.636875) scale(0.2 -0.2)">
       <use xlink:href="#DejaVuSans-32"/>
       <use xlink:href="#DejaVuSans-30" transform="translate(63.623047 0)"/>
      </g>
     </g>
    </g>
    <g id="xtick_6">
     <g id="line2d_7">
      <g>
       <use xlink:href="#mb1b8853718" x="437.442641" y="315.44" style="stroke: #000000; stroke-width: 0.8"/>
      </g>
     </g>
     <g id="text_6">
      <!-- 40 -->
      <g transform="translate(424.717641 337.636875) scale(0.2 -0.2)">
       <defs>
        <path id="DejaVuSans-34" d="M 2419 4116 
L 825 1625 
L 2419 1625 
L 2419 4116 
z
M 2253 4666 
L 3047 4666 
L 3047 1625 
L 3713 1625 
L 3713 1100 
L 3047 1100 
L 3047 0 
L 2419 0 
L 2419 1100 
L 313 1100 
L 313 1709 
L 2253 4666 
z
" transform="scale(0.015625)"/>
       </defs>
       <use xlink:href="#DejaVuSans-34"/>
       <use xlink:href="#DejaVuSans-30" transform="translate(63.623047 0)"/>
      </g>
     </g>
    </g>
    <g id="xtick_7">
     <g id="line2d_8">
      <defs>
       <path id="mf716778d7c" d="M 0 0 
L 0 2 
" style="stroke: #000000; stroke-width: 0.6"/>
      </defs>
      <g>
       <use xlink:href="#mf716778d7c" x="129.552461" y="315.44" style="stroke: #000000; stroke-width: 0.6"/>
      </g>
     </g>
    </g>
    <g id="xtick_8">
     <g id="line2d_9">
      <g>
       <use xlink:href="#mf716778d7c" x="183.769231" y="315.44" style="stroke: #000000; stroke-width: 0.6"/>
      </g>
     </g>
    </g>
    <g id="xtick_9">
     <g id="line2d_10">
      <g>
       <use xlink:href="#mf716778d7c" x="204.38149" y="315.44" style="stroke: #000000; stroke-width: 0.6"/>
      </g>
     </g>
    </g>
    <g id="xtick_10">
     <g id="line2d_11">
      <g>
       <use xlink:href="#mf716778d7c" x="222.236641" y="315.44" style="stroke: #000000; stroke-width: 0.6"/>
      </g>
     </g>
    </g>
    <g id="xtick_11">
     <g id="line2d_12">
      <g>
       <use xlink:href="#mf716778d7c" x="237.986" y="315.44" style="stroke: #000000; stroke-width: 0.6"/>
      </g>
     </g>
    </g>
    <g id="xtick_12">
     <g id="line2d_13">
      <g>
       <use xlink:href="#mf716778d7c" x="398.975231" y="315.44" style="stroke: #000000; stroke-width: 0.6"/>
      </g>
     </g>
    </g>
   </g>
   <g id="matplotlib.axis_2">
    <g id="ytick_1">
     <g id="line2d_14">
      <path d="M 22.78 268.070093 
L 453.192 268.070093 
" clip-path="url(#p400faf776f)" style="fill: none; stroke: #b0b0b0; stroke-width: 0.8; stroke-linecap: square"/>
     </g>
     <g id="line2d_15">
      <defs>
       <path id="m339e8d2e2f" d="M 0 0 
L -3.5 0 
" style="stroke: #000000; stroke-width: 0.8"/>
      </defs>
      <g>
       <use xlink:href="#m339e8d2e2f" x="22.78" y="268.070093" style="stroke: #000000; stroke-width: 0.8"/>
      </g>
     </g>
     <g id="text_7">
      <!-- 1 -->
      <g transform="translate(3.055 275.66853) scale(0.2 -0.2)">
       <use xlink:href="#DejaVuSans-31"/>
      </g>
     </g>
    </g>
    <g id="ytick_2">
     <g id="line2d_16">
      <path d="M 22.78 189.120248 
L 453.192 189.120248 
" clip-path="url(#p400faf776f)" style="fill: none; stroke: #b0b0b0; stroke-width: 0.8; stroke-linecap: square"/>
     </g>
     <g id="line2d_17">
      <g>
       <use xlink:href="#m339e8d2e2f" x="22.78" y="189.120248" style="stroke: #000000; stroke-width: 0.8"/>
      </g>
     </g>
     <g id="text_8">
      <!-- 3 -->
      <g transform="translate(3.055 196.718685) scale(0.2 -0.2)">
       <use xlink:href="#DejaVuSans-33"/>
      </g>
     </g>
    </g>
    <g id="ytick_3">
     <g id="line2d_18">
      <path d="M 22.78 110.170402 
L 453.192 110.170402 
" clip-path="url(#p400faf776f)" style="fill: none; stroke: #b0b0b0; stroke-width: 0.8; stroke-linecap: square"/>
     </g>
     <g id="line2d_19">
      <g>
       <use xlink:href="#m339e8d2e2f" x="22.78" y="110.170402" style="stroke: #000000; stroke-width: 0.8"/>
      </g>
     </g>
     <g id="text_9">
      <!-- 5 -->
      <g transform="translate(3.055 117.76884) scale(0.2 -0.2)">
       <use xlink:href="#DejaVuSans-35"/>
      </g>
     </g>
    </g>
    <g id="ytick_4">
     <g id="line2d_20">
      <path d="M 22.78 31.220557 
L 453.192 31.220557 
" clip-path="url(#p400faf776f)" style="fill: none; stroke: #b0b0b0; stroke-width: 0.8; stroke-linecap: square"/>
     </g>
     <g id="line2d_21">
      <g>
       <use xlink:href="#m339e8d2e2f" x="22.78" y="31.220557" style="stroke: #000000; stroke-width: 0.8"/>
      </g>
     </g>
     <g id="text_10">
      <!-- 7 -->
      <g transform="translate(3.055 38.818995) scale(0.2 -0.2)">
       <defs>
        <path id="DejaVuSans-37" d="M 525 4666 
L 3525 4666 
L 3525 4397 
L 1831 0 
L 1172 0 
L 2766 4134 
L 525 4134 
L 525 4666 
z
" transform="scale(0.015625)"/>
       </defs>
       <use xlink:href="#DejaVuSans-37"/>
      </g>
     </g>
    </g>
   </g>
   <g id="line2d_22"/>
   <g id="line2d_23">
    <defs>
     <path id="m7470777fd7" d="M 0 10 
C 2.652031 10 5.195799 8.946337 7.071068 7.071068 
C 8.946337 5.195799 10 2.652031 10 0 
C 10 -2.652031 8.946337 -5.195799 7.071068 -7.071068 
C 5.195799 -8.946337 2.652031 -10 0 -10 
C -2.652031 -10 -5.195799 -8.946337 -7.071068 -7.071068 
C -8.946337 -5.195799 -10 -2.652031 -10 0 
C -10 2.652031 -8.946337 5.195799 -7.071068 7.071068 
C -5.195799 8.946337 -2.652031 10 0 10 
z
" style="stroke: #1874b4"/>
    </defs>
    <g clip-path="url(#p400faf776f)">
     <use xlink:href="#m7470777fd7" x="36.868282" y="197.608394" style="fill-opacity: 0; stroke: #1874b4"/>
     <use xlink:href="#m7470777fd7" x="91.085051" y="199.265822" style="fill-opacity: 0; stroke: #1874b4"/>
     <use xlink:href="#m7470777fd7" x="159.390103" y="192.975791" style="fill-opacity: 0; stroke: #1874b4"/>
     <use xlink:href="#m7470777fd7" x="252.074282" y="192.436934" style="fill-opacity: 0; stroke: #1874b4"/>
     <use xlink:href="#m7470777fd7" x="344.758461" y="195.361586" style="fill-opacity: 0; stroke: #1874b4"/>
    </g>
   </g>
   <g id="line2d_24"/>
   <g id="line2d_25">
    <defs>
     <path id="m2b001bdc7d" d="M -0 14.142136 
L 8.485281 0 
L -0 -14.142136 
L -8.485281 -0 
z
" style="stroke: #fa7009; stroke-linejoin: miter"/>
    </defs>
    <g clip-path="url(#p400faf776f)">
     <use xlink:href="#m2b001bdc7d" x="36.868282" y="165.245032" style="fill-opacity: 0; stroke: #fa7009; stroke-linejoin: miter"/>
     <use xlink:href="#m2b001bdc7d" x="91.085051" y="165.28127" style="fill-opacity: 0; stroke: #fa7009; stroke-linejoin: miter"/>
     <use xlink:href="#m2b001bdc7d" x="159.390103" y="165.310315" style="fill-opacity: 0; stroke: #fa7009; stroke-linejoin: miter"/>
     <use xlink:href="#m2b001bdc7d" x="252.074282" y="165.332132" style="fill-opacity: 0; stroke: #fa7009; stroke-linejoin: miter"/>
     <use xlink:href="#m2b001bdc7d" x="344.758461" y="165.34305" style="fill-opacity: 0; stroke: #fa7009; stroke-linejoin: miter"/>
    </g>
   </g>
   <g id="line2d_26"/>
   <g id="line2d_27">
    <defs>
     <path id="madb4f2aa5d" d="M 0 -10 
L -2.24514 -3.09017 
L -9.510565 -3.09017 
L -3.632713 1.18034 
L -5.877853 8.09017 
L -0 3.81966 
L 5.877853 8.09017 
L 3.632713 1.18034 
L 9.510565 -3.09017 
L 2.24514 -3.09017 
z
" style="stroke: #22a022; stroke-linejoin: bevel"/>
    </defs>
    <g clip-path="url(#p400faf776f)">
     <use xlink:href="#madb4f2aa5d" x="36.868282" y="241.722439" style="fill-opacity: 0; stroke: #22a022; stroke-linejoin: bevel"/>
     <use xlink:href="#madb4f2aa5d" x="91.085051" y="247.429495" style="fill-opacity: 0; stroke: #22a022; stroke-linejoin: bevel"/>
     <use xlink:href="#madb4f2aa5d" x="159.390103" y="241.61219" style="fill-opacity: 0; stroke: #22a022; stroke-linejoin: bevel"/>
     <use xlink:href="#madb4f2aa5d" x="252.074282" y="239.190683" style="fill-opacity: 0; stroke: #22a022; stroke-linejoin: bevel"/>
     <use xlink:href="#madb4f2aa5d" x="344.758461" y="230.544907" style="fill-opacity: 0; stroke: #22a022; stroke-linejoin: bevel"/>
    </g>
   </g>
   <g id="line2d_28">
    <path d="M 36.868282 169.65204 
" clip-path="url(#p400faf776f)" style="fill: none; stroke: #d61e1f; stroke-width: 3; stroke-linecap: square"/>
    <defs>
     <path id="m53f9af408b" d="M -2.666667 8 
L 2.666667 8 
L 2.666667 2.666667 
L 8 2.666667 
L 8 -2.666667 
L 2.666667 -2.666667 
L 2.666667 -8 
L -2.666667 -8 
L -2.666667 -2.666667 
L -8 -2.666667 
L -8 2.666667 
L -2.666667 2.666667 
z
" style="stroke: #d61e1f; stroke-width: 1.5; stroke-linejoin: miter"/>
    </defs>
    <g clip-path="url(#p400faf776f)">
     <use xlink:href="#m53f9af408b" x="36.868282" y="169.65204" style="fill-opacity: 0; stroke: #d61e1f; stroke-width: 1.5; stroke-linejoin: miter"/>
    </g>
   </g>
   <g id="line2d_29"/>
   <g id="line2d_30">
    <defs>
     <path id="m6dfb492105" d="M -3.333333 10 
L 3.333333 10 
L 3.333333 3.333333 
L 10 3.333333 
L 10 -3.333333 
L 3.333333 -3.333333 
L 3.333333 -10 
L -3.333333 -10 
L -3.333333 -3.333333 
L -10 -3.333333 
L -10 3.333333 
L -3.333333 3.333333 
z
" style="stroke: #d61e1f; stroke-linejoin: miter"/>
    </defs>
    <g clip-path="url(#p400faf776f)">
     <use xlink:href="#m6dfb492105" x="36.868282" y="169.583339" style="fill-opacity: 0; stroke: #d61e1f; stroke-linejoin: miter"/>
     <use xlink:href="#m6dfb492105" x="91.085051" y="165.353976" style="fill-opacity: 0; stroke: #d61e1f; stroke-linejoin: miter"/>
     <use xlink:href="#m6dfb492105" x="159.390103" y="165.353976" style="fill-opacity: 0; stroke: #d61e1f; stroke-linejoin: miter"/>
     <use xlink:href="#m6dfb492105" x="252.074282" y="165.353976" style="fill-opacity: 0; stroke: #d61e1f; stroke-linejoin: miter"/>
     <use xlink:href="#m6dfb492105" x="344.758461" y="165.353976" style="fill-opacity: 0; stroke: #d61e1f; stroke-linejoin: miter"/>
    </g>
   </g>
   <g id="line2d_31"/>
   <g id="line2d_32">
    <defs>
     <path id="ma38ff03f55" d="M -0 10 
L 10 -10 
L -10 -10 
z
" style="stroke: #8c493c; stroke-linejoin: miter"/>
    </defs>
    <g clip-path="url(#p400faf776f)">
     <use xlink:href="#ma38ff03f55" x="36.868282" y="182.8689" style="fill-opacity: 0; stroke: #8c493c; stroke-linejoin: miter"/>
     <use xlink:href="#ma38ff03f55" x="91.085051" y="166.255907" style="fill-opacity: 0; stroke: #8c493c; stroke-linejoin: miter"/>
     <use xlink:href="#ma38ff03f55" x="159.390103" y="165.33256" style="fill-opacity: 0; stroke: #8c493c; stroke-linejoin: miter"/>
     <use xlink:href="#ma38ff03f55" x="252.074282" y="165.33256" style="fill-opacity: 0; stroke: #8c493c; stroke-linejoin: miter"/>
     <use xlink:href="#ma38ff03f55" x="344.758461" y="165.33256" style="fill-opacity: 0; stroke: #8c493c; stroke-linejoin: miter"/>
    </g>
   </g>
   <g id="line2d_33"/>
   <g id="line2d_34">
    <defs>
     <path id="m26e809f97c" d="M -5 10 
L 0 5 
L 5 10 
L 10 5 
L 5 0 
L 10 -5 
L 5 -10 
L 0 -5 
L -5 -10 
L -10 -5 
L -5 0 
L -10 5 
z
" style="stroke: #e35fbb; stroke-linejoin: miter"/>
    </defs>
    <g clip-path="url(#p400faf776f)">
     <use xlink:href="#m26e809f97c" x="36.868282" y="165.245032" style="fill-opacity: 0; stroke: #e35fbb; stroke-linejoin: miter"/>
     <use xlink:href="#m26e809f97c" x="91.085051" y="165.28127" style="fill-opacity: 0; stroke: #e35fbb; stroke-linejoin: miter"/>
     <use xlink:href="#m26e809f97c" x="159.390103" y="165.310315" style="fill-opacity: 0; stroke: #e35fbb; stroke-linejoin: miter"/>
     <use xlink:href="#m26e809f97c" x="252.074282" y="165.332132" style="fill-opacity: 0; stroke: #e35fbb; stroke-linejoin: miter"/>
     <use xlink:href="#m26e809f97c" x="344.758461" y="165.34305" style="fill-opacity: 0; stroke: #e35fbb; stroke-linejoin: miter"/>
    </g>
   </g>
   <g id="line2d_35">
    <path d="M 36.868282 129.647785 
L 91.085051 128.010417 
" clip-path="url(#p400faf776f)" style="fill: none; stroke: #11bdcf; stroke-width: 2; stroke-linecap: square"/>
    <defs>
     <path id="m5b5799bad9" d="M 0 -8 
L -8 8 
L 8 8 
z
" style="stroke: #11bdcf; stroke-linejoin: miter"/>
    </defs>
    <g clip-path="url(#p400faf776f)">
     <use xlink:href="#m5b5799bad9" x="36.868282" y="129.647785" style="fill-opacity: 0; stroke: #11bdcf; stroke-linejoin: miter"/>
     <use xlink:href="#m5b5799bad9" x="91.085051" y="128.010417" style="fill-opacity: 0; stroke: #11bdcf; stroke-linejoin: miter"/>
    </g>
   </g>
   <g id="line2d_36">
    <path d="M 91.085051 128.010417 
" clip-path="url(#p400faf776f)" style="fill: none; stroke: #11bdcf; stroke-width: 2; stroke-linecap: square"/>
    <g clip-path="url(#p400faf776f)">
     <use xlink:href="#m5b5799bad9" x="91.085051" y="128.010417" style="fill-opacity: 0; stroke: #11bdcf; stroke-linejoin: miter"/>
    </g>
   </g>
   <g id="line2d_37"/>
   <g id="line2d_38">
    <defs>
     <path id="m27fade8da7" d="M 0 -10 
L -10 10 
L 10 10 
z
" style="stroke: #11bdcf; stroke-linejoin: miter"/>
    </defs>
    <g clip-path="url(#p400faf776f)">
     <use xlink:href="#m27fade8da7" x="36.868282" y="154.292774" style="fill-opacity: 0; stroke: #11bdcf; stroke-linejoin: miter"/>
     <use xlink:href="#m27fade8da7" x="91.085051" y="154.311894" style="fill-opacity: 0; stroke: #11bdcf; stroke-linejoin: miter"/>
     <use xlink:href="#m27fade8da7" x="159.390103" y="154.327206" style="fill-opacity: 0; stroke: #11bdcf; stroke-linejoin: miter"/>
     <use xlink:href="#m27fade8da7" x="252.074282" y="154.338699" style="fill-opacity: 0; stroke: #11bdcf; stroke-linejoin: miter"/>
     <use xlink:href="#m27fade8da7" x="344.758461" y="154.344448" style="fill-opacity: 0; stroke: #11bdcf; stroke-linejoin: miter"/>
    </g>
   </g>
   <g id="line2d_39"/>
   <g id="line2d_40">
    <defs>
     <path id="m5d6ec97683" d="M -0 14.142136 
L 14.142136 0 
L 0 -14.142136 
L -14.142136 -0 
z
" style="stroke: #7f7f7f; stroke-linejoin: miter"/>
    </defs>
    <g clip-path="url(#p400faf776f)">
     <use xlink:href="#m5d6ec97683" x="36.868282" y="165.245032" style="fill-opacity: 0; stroke: #7f7f7f; stroke-linejoin: miter"/>
     <use xlink:href="#m5d6ec97683" x="91.085051" y="165.28127" style="fill-opacity: 0; stroke: #7f7f7f; stroke-linejoin: miter"/>
     <use xlink:href="#m5d6ec97683" x="159.390103" y="165.310315" style="fill-opacity: 0; stroke: #7f7f7f; stroke-linejoin: miter"/>
     <use xlink:href="#m5d6ec97683" x="252.074282" y="165.332132" style="fill-opacity: 0; stroke: #7f7f7f; stroke-linejoin: miter"/>
     <use xlink:href="#m5d6ec97683" x="344.758461" y="165.34305" style="fill-opacity: 0; stroke: #7f7f7f; stroke-linejoin: miter"/>
    </g>
   </g>
   <g id="line2d_41">
    <path d="M 36.868282 134.552077 
" clip-path="url(#p400faf776f)" style="fill: none; stroke: #bcbd1a; stroke-width: 2; stroke-linecap: square"/>
    <defs>
     <path id="mdb596cc59f" d="M -8 -0 
L 8 8 
L 8 -8 
z
" style="stroke: #bcbd1a; stroke-linejoin: miter"/>
    </defs>
    <g clip-path="url(#p400faf776f)">
     <use xlink:href="#mdb596cc59f" x="36.868282" y="134.552077" style="fill-opacity: 0; stroke: #bcbd1a; stroke-linejoin: miter"/>
    </g>
   </g>
   <g id="line2d_42"/>
   <g id="line2d_43">
    <defs>
     <path id="m950a208178" d="M -10 -0 
L 10 10 
L 10 -10 
z
" style="stroke: #bcbd1a; stroke-linejoin: miter"/>
    </defs>
    <g clip-path="url(#p400faf776f)">
     <use xlink:href="#m950a208178" x="36.868282" y="169.430439" style="fill-opacity: 0; stroke: #bcbd1a; stroke-linejoin: miter"/>
     <use xlink:href="#m950a208178" x="91.085051" y="165.33256" style="fill-opacity: 0; stroke: #bcbd1a; stroke-linejoin: miter"/>
     <use xlink:href="#m950a208178" x="159.390103" y="165.33256" style="fill-opacity: 0; stroke: #bcbd1a; stroke-linejoin: miter"/>
     <use xlink:href="#m950a208178" x="252.074282" y="165.33256" style="fill-opacity: 0; stroke: #bcbd1a; stroke-linejoin: miter"/>
     <use xlink:href="#m950a208178" x="344.758461" y="165.33256" style="fill-opacity: 0; stroke: #bcbd1a; stroke-linejoin: miter"/>
    </g>
   </g>
   <g id="line2d_44"/>
   <g id="line2d_45">
    <path d="M 40.143648 346.6 
L 461.8 292.538997 
" clip-path="url(#p400faf776f)" style="fill: none; stroke-dasharray: 0.5,0.825; stroke-dashoffset: 0; stroke: #000000; stroke-width: 0.5"/>
   </g>
   <g id="line2d_46">
    <path d="M -1 312.400148 
L 461.8 253.064074 
" clip-path="url(#p400faf776f)" style="fill: none; stroke-dasharray: 0.5,0.825; stroke-dashoffset: 0; stroke: #000000; stroke-width: 0.5"/>
   </g>
   <g id="line2d_47">
    <path d="M -1 272.925225 
L 461.8 213.589152 
" clip-path="url(#p400faf776f)" style="fill: none; stroke-dasharray: 0.5,0.825; stroke-dashoffset: 0; stroke: #000000; stroke-width: 0.5"/>
   </g>
   <g id="line2d_48">
    <path d="M -1 233.450302 
L 461.8 174.114229 
" clip-path="url(#p400faf776f)" style="fill: none; stroke-dasharray: 0.5,0.825; stroke-dashoffset: 0; stroke: #000000; stroke-width: 0.5"/>
   </g>
   <g id="line2d_49">
    <path d="M -1 193.97538 
L 461.8 134.639307 
" clip-path="url(#p400faf776f)" style="fill: none; stroke-dasharray: 0.5,0.825; stroke-dashoffset: 0; stroke: #000000; stroke-width: 0.5"/>
   </g>
   <g id="line2d_50">
    <path d="M -1 154.500457 
L 461.8 95.164384 
" clip-path="url(#p400faf776f)" style="fill: none; stroke-dasharray: 0.5,0.825; stroke-dashoffset: 0; stroke: #000000; stroke-width: 0.5"/>
   </g>
   <g id="line2d_51">
    <path d="M -1 115.025534 
L 461.8 55.689461 
" clip-path="url(#p400faf776f)" style="fill: none; stroke-dasharray: 0.5,0.825; stroke-dashoffset: 0; stroke: #000000; stroke-width: 0.5"/>
   </g>
   <g id="line2d_52">
    <path d="M -1 75.550612 
L 461.8 16.214539 
" clip-path="url(#p400faf776f)" style="fill: none; stroke-dasharray: 0.5,0.825; stroke-dashoffset: 0; stroke: #000000; stroke-width: 0.5"/>
   </g>
   <g id="line2d_53">
    <path d="M -1 36.075689 
L 288.177023 -1 
" clip-path="url(#p400faf776f)" style="fill: none; stroke-dasharray: 0.5,0.825; stroke-dashoffset: 0; stroke: #000000; stroke-width: 0.5"/>
   </g>
   <g id="line2d_54">
    <path d="M 36.868282 150.232585 
L 91.085051 118.959228 
" clip-path="url(#p400faf776f)" style="fill: none; stroke-dasharray: 7.4,3.2; stroke-dashoffset: 0; stroke: #440154; stroke-width: 2"/>
    <defs>
     <path id="m0ba28f3653" d="M 8 0 
L -8 -8 
L -8 8 
z
" style="stroke: #440154; stroke-linejoin: miter"/>
    </defs>
    <g clip-path="url(#p400faf776f)">
     <use xlink:href="#m0ba28f3653" x="36.868282" y="150.232585" style="fill-opacity: 0; stroke: #440154; stroke-linejoin: miter"/>
     <use xlink:href="#m0ba28f3653" x="91.085051" y="118.959228" style="fill-opacity: 0; stroke: #440154; stroke-linejoin: miter"/>
    </g>
   </g>
   <g id="line2d_55">
    <path d="M 91.085051 118.959228 
" clip-path="url(#p400faf776f)" style="fill: none; stroke-dasharray: 7.4,3.2; stroke-dashoffset: 0; stroke: #440154; stroke-width: 2"/>
    <g clip-path="url(#p400faf776f)">
     <use xlink:href="#m0ba28f3653" x="91.085051" y="118.959228" style="fill-opacity: 0; stroke: #440154; stroke-linejoin: miter"/>
    </g>
   </g>
   <g id="line2d_56"/>
   <g id="line2d_57">
    <defs>
     <path id="m73f8d4f0e2" d="M 10 0 
L -10 -10 
L -10 10 
z
" style="stroke: #440154; stroke-linejoin: miter"/>
    </defs>
    <g clip-path="url(#p400faf776f)">
     <use xlink:href="#m73f8d4f0e2" x="36.868282" y="165.351833" style="fill-opacity: 0; stroke: #440154; stroke-linejoin: miter"/>
     <use xlink:href="#m73f8d4f0e2" x="91.085051" y="165.351119" style="fill-opacity: 0; stroke: #440154; stroke-linejoin: miter"/>
     <use xlink:href="#m73f8d4f0e2" x="159.390103" y="165.352262" style="fill-opacity: 0; stroke: #440154; stroke-linejoin: miter"/>
     <use xlink:href="#m73f8d4f0e2" x="252.074282" y="165.353119" style="fill-opacity: 0; stroke: #440154; stroke-linejoin: miter"/>
     <use xlink:href="#m73f8d4f0e2" x="344.758461" y="165.353547" style="fill-opacity: 0; stroke: #440154; stroke-linejoin: miter"/>
    </g>
   </g>
   <g id="line2d_58"/>
   <g id="line2d_59">
    <defs>
     <path id="m4c25ff69d3" d="M 0 -10 
L -9.510565 -3.09017 
L -5.877853 8.09017 
L 5.877853 8.09017 
L 9.510565 -3.09017 
z
" style="stroke: #2500bb; stroke-linejoin: miter"/>
    </defs>
    <g clip-path="url(#p400faf776f)">
     <use xlink:href="#m4c25ff69d3" x="36.868282" y="165.268471" style="fill-opacity: 0; stroke: #2500bb; stroke-linejoin: miter"/>
     <use xlink:href="#m4c25ff69d3" x="91.085051" y="165.31117" style="fill-opacity: 0; stroke: #2500bb; stroke-linejoin: miter"/>
     <use xlink:href="#m4c25ff69d3" x="159.390103" y="165.319723" style="fill-opacity: 0; stroke: #2500bb; stroke-linejoin: miter"/>
     <use xlink:href="#m4c25ff69d3" x="252.074282" y="165.33256" style="fill-opacity: 0; stroke: #2500bb; stroke-linejoin: miter"/>
     <use xlink:href="#m4c25ff69d3" x="344.758461" y="165.33256" style="fill-opacity: 0; stroke: #2500bb; stroke-linejoin: miter"/>
    </g>
   </g>
   <g id="line2d_60">
    <path d="M 36.868282 139.065259 
" clip-path="url(#p400faf776f)" style="fill: none; stroke-dasharray: 7.4,3.2; stroke-dashoffset: 0; stroke: #f800fd; stroke-width: 2"/>
    <defs>
     <path id="m33c3f482b4" d="M -0 9.899495 
L 5.939697 0 
L 0 -9.899495 
L -5.939697 -0 
z
" style="stroke: #f800fd; stroke-linejoin: miter"/>
    </defs>
    <g clip-path="url(#p400faf776f)">
     <use xlink:href="#m33c3f482b4" x="36.868282" y="139.065259" style="fill-opacity: 0; stroke: #f800fd; stroke-linejoin: miter"/>
    </g>
   </g>
   <g id="line2d_61"/>
   <g id="line2d_62">
    <defs>
     <path id="mce6cebdfbb" d="M -0 14.142136 
L 8.485281 0 
L -0 -14.142136 
L -8.485281 -0 
z
" style="stroke: #f800fd; stroke-linejoin: miter"/>
    </defs>
    <g clip-path="url(#p400faf776f)">
     <use xlink:href="#mce6cebdfbb" x="36.868282" y="165.298349" style="fill-opacity: 0; stroke: #f800fd; stroke-linejoin: miter"/>
     <use xlink:href="#mce6cebdfbb" x="91.085051" y="165.285538" style="fill-opacity: 0; stroke: #f800fd; stroke-linejoin: miter"/>
     <use xlink:href="#mce6cebdfbb" x="159.390103" y="165.277002" style="fill-opacity: 0; stroke: #f800fd; stroke-linejoin: miter"/>
     <use xlink:href="#mce6cebdfbb" x="252.074282" y="165.276149" style="fill-opacity: 0; stroke: #f800fd; stroke-linejoin: miter"/>
     <use xlink:href="#mce6cebdfbb" x="344.758461" y="165.28255" style="fill-opacity: 0; stroke: #f800fd; stroke-linejoin: miter"/>
    </g>
   </g>
   <g id="patch_3">
    <path d="M 22.78 315.44 
L 22.78 25.56 
" style="fill: none; stroke: #000000; stroke-width: 0.8; stroke-linejoin: miter; stroke-linecap: square"/>
   </g>
   <g id="patch_4">
    <path d="M 453.192 315.44 
L 453.192 25.56 
" style="fill: none; stroke: #000000; stroke-width: 0.8; stroke-linejoin: miter; stroke-linecap: square"/>
   </g>
   <g id="patch_5">
    <path d="M 22.78 315.44 
L 453.192 315.44 
" style="fill: none; stroke: #000000; stroke-width: 0.8; stroke-linejoin: miter; stroke-linecap: square"/>
   </g>
   <g id="patch_6">
    <path d="M 22.78 25.56 
L 453.192 25.56 
" style="fill: none; stroke: #000000; stroke-width: 0.8; stroke-linejoin: miter; stroke-linecap: square"/>
   </g>
   <g id="text_11">
    <!-- 15 instances -->
    <g transform="translate(22.78 296.8515) scale(0.14 -0.14)">
     <defs>
      <path id="DejaVuSans-20" transform="scale(0.015625)"/>
      <path id="DejaVuSans-69" d="M 603 3500 
L 1178 3500 
L 1178 0 
L 603 0 
L 603 3500 
z
M 603 4863 
L 1178 4863 
L 1178 4134 
L 603 4134 
L 603 4863 
z
" transform="scale(0.015625)"/>
      <path id="DejaVuSans-6e" d="M 3513 2113 
L 3513 0 
L 2938 0 
L 2938 2094 
Q 2938 2591 2744 2837 
Q 2550 3084 2163 3084 
Q 1697 3084 1428 2787 
Q 1159 2491 1159 1978 
L 1159 0 
L 581 0 
L 581 3500 
L 1159 3500 
L 1159 2956 
Q 1366 3272 1645 3428 
Q 1925 3584 2291 3584 
Q 2894 3584 3203 3211 
Q 3513 2838 3513 2113 
z
" transform="scale(0.015625)"/>
      <path id="DejaVuSans-73" d="M 2834 3397 
L 2834 2853 
Q 2591 2978 2328 3040 
Q 2066 3103 1784 3103 
Q 1356 3103 1142 2972 
Q 928 2841 928 2578 
Q 928 2378 1081 2264 
Q 1234 2150 1697 2047 
L 1894 2003 
Q 2506 1872 2764 1633 
Q 3022 1394 3022 966 
Q 3022 478 2636 193 
Q 2250 -91 1575 -91 
Q 1294 -91 989 -36 
Q 684 19 347 128 
L 347 722 
Q 666 556 975 473 
Q 1284 391 1588 391 
Q 1994 391 2212 530 
Q 2431 669 2431 922 
Q 2431 1156 2273 1281 
Q 2116 1406 1581 1522 
L 1381 1569 
Q 847 1681 609 1914 
Q 372 2147 372 2553 
Q 372 3047 722 3315 
Q 1072 3584 1716 3584 
Q 2034 3584 2315 3537 
Q 2597 3491 2834 3397 
z
" transform="scale(0.015625)"/>
      <path id="DejaVuSans-74" d="M 1172 4494 
L 1172 3500 
L 2356 3500 
L 2356 3053 
L 1172 3053 
L 1172 1153 
Q 1172 725 1289 603 
Q 1406 481 1766 481 
L 2356 481 
L 2356 0 
L 1766 0 
Q 1100 0 847 248 
Q 594 497 594 1153 
L 594 3053 
L 172 3053 
L 172 3500 
L 594 3500 
L 594 4494 
L 1172 4494 
z
" transform="scale(0.015625)"/>
      <path id="DejaVuSans-61" d="M 2194 1759 
Q 1497 1759 1228 1600 
Q 959 1441 959 1056 
Q 959 750 1161 570 
Q 1363 391 1709 391 
Q 2188 391 2477 730 
Q 2766 1069 2766 1631 
L 2766 1759 
L 2194 1759 
z
M 3341 1997 
L 3341 0 
L 2766 0 
L 2766 531 
Q 2569 213 2275 61 
Q 1981 -91 1556 -91 
Q 1019 -91 701 211 
Q 384 513 384 1019 
Q 384 1609 779 1909 
Q 1175 2209 1959 2209 
L 2766 2209 
L 2766 2266 
Q 2766 2663 2505 2880 
Q 2244 3097 1772 3097 
Q 1472 3097 1187 3025 
Q 903 2953 641 2809 
L 641 3341 
Q 956 3463 1253 3523 
Q 1550 3584 1831 3584 
Q 2591 3584 2966 3190 
Q 3341 2797 3341 1997 
z
" transform="scale(0.015625)"/>
      <path id="DejaVuSans-63" d="M 3122 3366 
L 3122 2828 
Q 2878 2963 2633 3030 
Q 2388 3097 2138 3097 
Q 1578 3097 1268 2742 
Q 959 2388 959 1747 
Q 959 1106 1268 751 
Q 1578 397 2138 397 
Q 2388 397 2633 464 
Q 2878 531 3122 666 
L 3122 134 
Q 2881 22 2623 -34 
Q 2366 -91 2075 -91 
Q 1284 -91 818 406 
Q 353 903 353 1747 
Q 353 2603 823 3093 
Q 1294 3584 2113 3584 
Q 2378 3584 2631 3529 
Q 2884 3475 3122 3366 
z
" transform="scale(0.015625)"/>
      <path id="DejaVuSans-65" d="M 3597 1894 
L 3597 1613 
L 953 1613 
Q 991 1019 1311 708 
Q 1631 397 2203 397 
Q 2534 397 2845 478 
Q 3156 559 3463 722 
L 3463 178 
Q 3153 47 2828 -22 
Q 2503 -91 2169 -91 
Q 1331 -91 842 396 
Q 353 884 353 1716 
Q 353 2575 817 3079 
Q 1281 3584 2069 3584 
Q 2775 3584 3186 3129 
Q 3597 2675 3597 1894 
z
M 3022 2063 
Q 3016 2534 2758 2815 
Q 2500 3097 2075 3097 
Q 1594 3097 1305 2825 
Q 1016 2553 972 2059 
L 3022 2063 
z
" transform="scale(0.015625)"/>
     </defs>
     <use xlink:href="#DejaVuSans-31"/>
     <use xlink:href="#DejaVuSans-35" transform="translate(63.623047 0)"/>
     <use xlink:href="#DejaVuSans-20" transform="translate(127.246094 0)"/>
     <use xlink:href="#DejaVuSans-69" transform="translate(159.033203 0)"/>
     <use xlink:href="#DejaVuSans-6e" transform="translate(186.816406 0)"/>
     <use xlink:href="#DejaVuSans-73" transform="translate(250.195312 0)"/>
     <use xlink:href="#DejaVuSans-74" transform="translate(302.294922 0)"/>
     <use xlink:href="#DejaVuSans-61" transform="translate(341.503906 0)"/>
     <use xlink:href="#DejaVuSans-6e" transform="translate(402.783203 0)"/>
     <use xlink:href="#DejaVuSans-63" transform="translate(466.162109 0)"/>
     <use xlink:href="#DejaVuSans-65" transform="translate(521.142578 0)"/>
     <use xlink:href="#DejaVuSans-73" transform="translate(582.666016 0)"/>
    </g>
    <!-- target Df: 1e-8 -->
    <g transform="translate(22.78 312.528437) scale(0.14 -0.14)">
     <defs>
      <path id="DejaVuSans-72" d="M 2631 2963 
Q 2534 3019 2420 3045 
Q 2306 3072 2169 3072 
Q 1681 3072 1420 2755 
Q 1159 2438 1159 1844 
L 1159 0 
L 581 0 
L 581 3500 
L 1159 3500 
L 1159 2956 
Q 1341 3275 1631 3429 
Q 1922 3584 2338 3584 
Q 2397 3584 2469 3576 
Q 2541 3569 2628 3553 
L 2631 2963 
z
" transform="scale(0.015625)"/>
      <path id="DejaVuSans-67" d="M 2906 1791 
Q 2906 2416 2648 2759 
Q 2391 3103 1925 3103 
Q 1463 3103 1205 2759 
Q 947 2416 947 1791 
Q 947 1169 1205 825 
Q 1463 481 1925 481 
Q 2391 481 2648 825 
Q 2906 1169 2906 1791 
z
M 3481 434 
Q 3481 -459 3084 -895 
Q 2688 -1331 1869 -1331 
Q 1566 -1331 1297 -1286 
Q 1028 -1241 775 -1147 
L 775 -588 
Q 1028 -725 1275 -790 
Q 1522 -856 1778 -856 
Q 2344 -856 2625 -561 
Q 2906 -266 2906 331 
L 2906 616 
Q 2728 306 2450 153 
Q 2172 0 1784 0 
Q 1141 0 747 490 
Q 353 981 353 1791 
Q 353 2603 747 3093 
Q 1141 3584 1784 3584 
Q 2172 3584 2450 3431 
Q 2728 3278 2906 2969 
L 2906 3500 
L 3481 3500 
L 3481 434 
z
" transform="scale(0.015625)"/>
      <path id="DejaVuSans-44" d="M 1259 4147 
L 1259 519 
L 2022 519 
Q 2988 519 3436 956 
Q 3884 1394 3884 2338 
Q 3884 3275 3436 3711 
Q 2988 4147 2022 4147 
L 1259 4147 
z
M 628 4666 
L 1925 4666 
Q 3281 4666 3915 4102 
Q 4550 3538 4550 2338 
Q 4550 1131 3912 565 
Q 3275 0 1925 0 
L 628 0 
L 628 4666 
z
" transform="scale(0.015625)"/>
      <path id="DejaVuSans-66" d="M 2375 4863 
L 2375 4384 
L 1825 4384 
Q 1516 4384 1395 4259 
Q 1275 4134 1275 3809 
L 1275 3500 
L 2222 3500 
L 2222 3053 
L 1275 3053 
L 1275 0 
L 697 0 
L 697 3053 
L 147 3053 
L 147 3500 
L 697 3500 
L 697 3744 
Q 697 4328 969 4595 
Q 1241 4863 1831 4863 
L 2375 4863 
z
" transform="scale(0.015625)"/>
      <path id="DejaVuSans-3a" d="M 750 794 
L 1409 794 
L 1409 0 
L 750 0 
L 750 794 
z
M 750 3309 
L 1409 3309 
L 1409 2516 
L 750 2516 
L 750 3309 
z
" transform="scale(0.015625)"/>
      <path id="DejaVuSans-2d" d="M 313 2009 
L 1997 2009 
L 1997 1497 
L 313 1497 
L 313 2009 
z
" transform="scale(0.015625)"/>
      <path id="DejaVuSans-38" d="M 2034 2216 
Q 1584 2216 1326 1975 
Q 1069 1734 1069 1313 
Q 1069 891 1326 650 
Q 1584 409 2034 409 
Q 2484 409 2743 651 
Q 3003 894 3003 1313 
Q 3003 1734 2745 1975 
Q 2488 2216 2034 2216 
z
M 1403 2484 
Q 997 2584 770 2862 
Q 544 3141 544 3541 
Q 544 4100 942 4425 
Q 1341 4750 2034 4750 
Q 2731 4750 3128 4425 
Q 3525 4100 3525 3541 
Q 3525 3141 3298 2862 
Q 3072 2584 2669 2484 
Q 3125 2378 3379 2068 
Q 3634 1759 3634 1313 
Q 3634 634 3220 271 
Q 2806 -91 2034 -91 
Q 1263 -91 848 271 
Q 434 634 434 1313 
Q 434 1759 690 2068 
Q 947 2378 1403 2484 
z
M 1172 3481 
Q 1172 3119 1398 2916 
Q 1625 2713 2034 2713 
Q 2441 2713 2670 2916 
Q 2900 3119 2900 3481 
Q 2900 3844 2670 4047 
Q 2441 4250 2034 4250 
Q 1625 4250 1398 4047 
Q 1172 3844 1172 3481 
z
" transform="scale(0.015625)"/>
     </defs>
     <use xlink:href="#DejaVuSans-74"/>
     <use xlink:href="#DejaVuSans-61" transform="translate(39.208984 0)"/>
     <use xlink:href="#DejaVuSans-72" transform="translate(100.488281 0)"/>
     <use xlink:href="#DejaVuSans-67" transform="translate(139.851562 0)"/>
     <use xlink:href="#DejaVuSans-65" transform="translate(203.328125 0)"/>
     <use xlink:href="#DejaVuSans-74" transform="translate(264.851562 0)"/>
     <use xlink:href="#DejaVuSans-20" transform="translate(304.060547 0)"/>
     <use xlink:href="#DejaVuSans-44" transform="translate(335.847656 0)"/>
     <use xlink:href="#DejaVuSans-66" transform="translate(412.849609 0)"/>
     <use xlink:href="#DejaVuSans-3a" transform="translate(444.429688 0)"/>
     <use xlink:href="#DejaVuSans-20" transform="translate(478.121094 0)"/>
     <use xlink:href="#DejaVuSans-31" transform="translate(509.908203 0)"/>
     <use xlink:href="#DejaVuSans-65" transform="translate(573.53125 0)"/>
     <use xlink:href="#DejaVuSans-2d" transform="translate(635.054688 0)"/>
     <use xlink:href="#DejaVuSans-38" transform="translate(671.138672 0)"/>
    </g>
   </g>
   <g id="text_12">
    <!-- v2.7.4 -->
    <g style="fill: #808080" transform="translate(225.441 310.87745) scale(0.08 -0.08)">
     <defs>
      <path id="DejaVuSans-76" d="M 191 3500 
L 800 3500 
L 1894 563 
L 2988 3500 
L 3597 3500 
L 2284 0 
L 1503 0 
L 191 3500 
z
" transform="scale(0.015625)"/>
      <path id="DejaVuSans-2e" d="M 684 794 
L 1344 794 
L 1344 0 
L 684 0 
L 684 794 
z
" transform="scale(0.015625)"/>
     </defs>
     <use xlink:href="#DejaVuSans-76"/>
     <use xlink:href="#DejaVuSans-32" transform="translate(59.179688 0)"/>
     <use xlink:href="#DejaVuSans-2e" transform="translate(122.802734 0)"/>
     <use xlink:href="#DejaVuSans-37" transform="translate(154.589844 0)"/>
     <use xlink:href="#DejaVuSans-2e" transform="translate(218.212891 0)"/>
     <use xlink:href="#DejaVuSans-34" transform="translate(250 0)"/>
    </g>
   </g>
   <g id="text_13">
    <!-- 24 Lunacek bi-Rastrigin -->
    <g transform="translate(110.770437 19.56) scale(0.216 -0.216)">
     <defs>
      <path id="DejaVuSans-4c" d="M 628 4666 
L 1259 4666 
L 1259 531 
L 3531 531 
L 3531 0 
L 628 0 
L 628 4666 
z
" transform="scale(0.015625)"/>
      <path id="DejaVuSans-75" d="M 544 1381 
L 544 3500 
L 1119 3500 
L 1119 1403 
Q 1119 906 1312 657 
Q 1506 409 1894 409 
Q 2359 409 2629 706 
Q 2900 1003 2900 1516 
L 2900 3500 
L 3475 3500 
L 3475 0 
L 2900 0 
L 2900 538 
Q 2691 219 2414 64 
Q 2138 -91 1772 -91 
Q 1169 -91 856 284 
Q 544 659 544 1381 
z
M 1991 3584 
L 1991 3584 
z
" transform="scale(0.015625)"/>
      <path id="DejaVuSans-6b" d="M 581 4863 
L 1159 4863 
L 1159 1991 
L 2875 3500 
L 3609 3500 
L 1753 1863 
L 3688 0 
L 2938 0 
L 1159 1709 
L 1159 0 
L 581 0 
L 581 4863 
z
" transform="scale(0.015625)"/>
      <path id="DejaVuSans-62" d="M 3116 1747 
Q 3116 2381 2855 2742 
Q 2594 3103 2138 3103 
Q 1681 3103 1420 2742 
Q 1159 2381 1159 1747 
Q 1159 1113 1420 752 
Q 1681 391 2138 391 
Q 2594 391 2855 752 
Q 3116 1113 3116 1747 
z
M 1159 2969 
Q 1341 3281 1617 3432 
Q 1894 3584 2278 3584 
Q 2916 3584 3314 3078 
Q 3713 2572 3713 1747 
Q 3713 922 3314 415 
Q 2916 -91 2278 -91 
Q 1894 -91 1617 61 
Q 1341 213 1159 525 
L 1159 0 
L 581 0 
L 581 4863 
L 1159 4863 
L 1159 2969 
z
" transform="scale(0.015625)"/>
      <path id="DejaVuSans-52" d="M 2841 2188 
Q 3044 2119 3236 1894 
Q 3428 1669 3622 1275 
L 4263 0 
L 3584 0 
L 2988 1197 
Q 2756 1666 2539 1819 
Q 2322 1972 1947 1972 
L 1259 1972 
L 1259 0 
L 628 0 
L 628 4666 
L 2053 4666 
Q 2853 4666 3247 4331 
Q 3641 3997 3641 3322 
Q 3641 2881 3436 2590 
Q 3231 2300 2841 2188 
z
M 1259 4147 
L 1259 2491 
L 2053 2491 
Q 2509 2491 2742 2702 
Q 2975 2913 2975 3322 
Q 2975 3731 2742 3939 
Q 2509 4147 2053 4147 
L 1259 4147 
z
" transform="scale(0.015625)"/>
     </defs>
     <use xlink:href="#DejaVuSans-32"/>
     <use xlink:href="#DejaVuSans-34" transform="translate(63.623047 0)"/>
     <use xlink:href="#DejaVuSans-20" transform="translate(127.246094 0)"/>
     <use xlink:href="#DejaVuSans-4c" transform="translate(159.033203 0)"/>
     <use xlink:href="#DejaVuSans-75" transform="translate(212.996094 0)"/>
     <use xlink:href="#DejaVuSans-6e" transform="translate(276.375 0)"/>
     <use xlink:href="#DejaVuSans-61" transform="translate(339.753906 0)"/>
     <use xlink:href="#DejaVuSans-63" transform="translate(401.033203 0)"/>
     <use xlink:href="#DejaVuSans-65" transform="translate(456.013672 0)"/>
     <use xlink:href="#DejaVuSans-6b" transform="translate(517.537109 0)"/>
     <use xlink:href="#DejaVuSans-20" transform="translate(575.447266 0)"/>
     <use xlink:href="#DejaVuSans-62" transform="translate(607.234375 0)"/>
     <use xlink:href="#DejaVuSans-69" transform="translate(670.710938 0)"/>
     <use xlink:href="#DejaVuSans-2d" transform="translate(698.494141 0)"/>
     <use xlink:href="#DejaVuSans-52" transform="translate(734.578125 0)"/>
     <use xlink:href="#DejaVuSans-61" transform="translate(801.810547 0)"/>
     <use xlink:href="#DejaVuSans-73" transform="translate(863.089844 0)"/>
     <use xlink:href="#DejaVuSans-74" transform="translate(915.189453 0)"/>
     <use xlink:href="#DejaVuSans-72" transform="translate(954.398438 0)"/>
     <use xlink:href="#DejaVuSans-69" transform="translate(995.511719 0)"/>
     <use xlink:href="#DejaVuSans-67" transform="translate(1023.294922 0)"/>
     <use xlink:href="#DejaVuSans-69" transform="translate(1086.771484 0)"/>
     <use xlink:href="#DejaVuSans-6e" transform="translate(1114.554688 0)"/>
    </g>
   </g>
   <g id="legend_1">
    <g id="patch_7">
     <path d="M 347.006403 310.581845 
L 446.390583 310.581845 
Q 448.333845 310.581845 448.333845 308.638583 
L 448.333845 138.469571 
Q 448.333845 136.526309 446.390583 136.526309 
L 347.006403 136.526309 
Q 345.063141 136.526309 345.063141 138.469571 
L 345.063141 308.638583 
Q 345.063141 310.581845 347.006403 310.581845 
z
" style="fill: #ffffff; opacity: 0.2; stroke: #cccccc; stroke-linejoin: miter"/>
    </g>
    <g id="line2d_63">
     <path d="M 348.949665 144.395002 
L 358.665974 144.395002 
L 368.382283 144.395002 
" style="fill: none; stroke: #1874b4; stroke-width: 4; stroke-linecap: square"/>
     <defs>
      <path id="mf7b50c4ac7" d="M 0 6 
C 1.591219 6 3.117479 5.367802 4.242641 4.242641 
C 5.367802 3.117479 6 1.591219 6 0 
C 6 -1.591219 5.367802 -3.117479 4.242641 -4.242641 
C 3.117479 -5.367802 1.591219 -6 0 -6 
C -1.591219 -6 -3.117479 -5.367802 -4.242641 -4.242641 
C -5.367802 -3.117479 -6 -1.591219 -6 0 
C -6 1.591219 -5.367802 3.117479 -4.242641 4.242641 
C -3.117479 5.367802 -1.591219 6 0 6 
z
" style="stroke: #1874b4; stroke-width: 3"/>
     </defs>
     <g>
      <use xlink:href="#mf7b50c4ac7" x="358.665974" y="144.395002" style="fill-opacity: 0; stroke: #1874b4; stroke-width: 3"/>
     </g>
    </g>
    <g id="text_14">
     <!-- CMAES -->
     <g transform="translate(376.155331 147.79571) scale(0.097163 -0.097163)">
      <defs>
       <path id="DejaVuSans-43" d="M 4122 4306 
L 4122 3641 
Q 3803 3938 3442 4084 
Q 3081 4231 2675 4231 
Q 1875 4231 1450 3742 
Q 1025 3253 1025 2328 
Q 1025 1406 1450 917 
Q 1875 428 2675 428 
Q 3081 428 3442 575 
Q 3803 722 4122 1019 
L 4122 359 
Q 3791 134 3420 21 
Q 3050 -91 2638 -91 
Q 1578 -91 968 557 
Q 359 1206 359 2328 
Q 359 3453 968 4101 
Q 1578 4750 2638 4750 
Q 3056 4750 3426 4639 
Q 3797 4528 4122 4306 
z
" transform="scale(0.015625)"/>
       <path id="DejaVuSans-4d" d="M 628 4666 
L 1569 4666 
L 2759 1491 
L 3956 4666 
L 4897 4666 
L 4897 0 
L 4281 0 
L 4281 4097 
L 3078 897 
L 2444 897 
L 1241 4097 
L 1241 0 
L 628 0 
L 628 4666 
z
" transform="scale(0.015625)"/>
       <path id="DejaVuSans-41" d="M 2188 4044 
L 1331 1722 
L 3047 1722 
L 2188 4044 
z
M 1831 4666 
L 2547 4666 
L 4325 0 
L 3669 0 
L 3244 1197 
L 1141 1197 
L 716 0 
L 50 0 
L 1831 4666 
z
" transform="scale(0.015625)"/>
       <path id="DejaVuSans-45" d="M 628 4666 
L 3578 4666 
L 3578 4134 
L 1259 4134 
L 1259 2753 
L 3481 2753 
L 3481 2222 
L 1259 2222 
L 1259 531 
L 3634 531 
L 3634 0 
L 628 0 
L 628 4666 
z
" transform="scale(0.015625)"/>
       <path id="DejaVuSans-53" d="M 3425 4513 
L 3425 3897 
Q 3066 4069 2747 4153 
Q 2428 4238 2131 4238 
Q 1616 4238 1336 4038 
Q 1056 3838 1056 3469 
Q 1056 3159 1242 3001 
Q 1428 2844 1947 2747 
L 2328 2669 
Q 3034 2534 3370 2195 
Q 3706 1856 3706 1288 
Q 3706 609 3251 259 
Q 2797 -91 1919 -91 
Q 1588 -91 1214 -16 
Q 841 59 441 206 
L 441 856 
Q 825 641 1194 531 
Q 1563 422 1919 422 
Q 2459 422 2753 634 
Q 3047 847 3047 1241 
Q 3047 1584 2836 1778 
Q 2625 1972 2144 2069 
L 1759 2144 
Q 1053 2284 737 2584 
Q 422 2884 422 3419 
Q 422 4038 858 4394 
Q 1294 4750 2059 4750 
Q 2388 4750 2728 4690 
Q 3069 4631 3425 4513 
z
" transform="scale(0.015625)"/>
      </defs>
      <use xlink:href="#DejaVuSans-43"/>
      <use xlink:href="#DejaVuSans-4d" transform="translate(69.824219 0)"/>
      <use xlink:href="#DejaVuSans-41" transform="translate(156.103516 0)"/>
      <use xlink:href="#DejaVuSans-45" transform="translate(224.511719 0)"/>
      <use xlink:href="#DejaVuSans-53" transform="translate(287.695312 0)"/>
     </g>
    </g>
    <g id="line2d_64">
     <path d="M 348.949665 158.656722 
L 358.665974 158.656722 
L 368.382283 158.656722 
" style="fill: none; stroke: #fa7009; stroke-width: 3.666667; stroke-linecap: square"/>
     <defs>
      <path id="m5e3e6b3a13" d="M -0 8.485281 
L 5.091169 0 
L 0 -8.485281 
L -5.091169 -0 
z
" style="stroke: #fa7009; stroke-width: 2.5; stroke-linejoin: miter"/>
     </defs>
     <g>
      <use xlink:href="#m5e3e6b3a13" x="358.665974" y="158.656722" style="fill-opacity: 0; stroke: #fa7009; stroke-width: 2.5; stroke-linejoin: miter"/>
     </g>
    </g>
    <g id="text_15">
     <!-- GWO -->
     <g transform="translate(376.155331 162.05743) scale(0.097163 -0.097163)">
      <defs>
       <path id="DejaVuSans-47" d="M 3809 666 
L 3809 1919 
L 2778 1919 
L 2778 2438 
L 4434 2438 
L 4434 434 
Q 4069 175 3628 42 
Q 3188 -91 2688 -91 
Q 1594 -91 976 548 
Q 359 1188 359 2328 
Q 359 3472 976 4111 
Q 1594 4750 2688 4750 
Q 3144 4750 3555 4637 
Q 3966 4525 4313 4306 
L 4313 3634 
Q 3963 3931 3569 4081 
Q 3175 4231 2741 4231 
Q 1884 4231 1454 3753 
Q 1025 3275 1025 2328 
Q 1025 1384 1454 906 
Q 1884 428 2741 428 
Q 3075 428 3337 486 
Q 3600 544 3809 666 
z
" transform="scale(0.015625)"/>
       <path id="DejaVuSans-57" d="M 213 4666 
L 850 4666 
L 1831 722 
L 2809 4666 
L 3519 4666 
L 4500 722 
L 5478 4666 
L 6119 4666 
L 4947 0 
L 4153 0 
L 3169 4050 
L 2175 0 
L 1381 0 
L 213 4666 
z
" transform="scale(0.015625)"/>
       <path id="DejaVuSans-4f" d="M 2522 4238 
Q 1834 4238 1429 3725 
Q 1025 3213 1025 2328 
Q 1025 1447 1429 934 
Q 1834 422 2522 422 
Q 3209 422 3611 934 
Q 4013 1447 4013 2328 
Q 4013 3213 3611 3725 
Q 3209 4238 2522 4238 
z
M 2522 4750 
Q 3503 4750 4090 4092 
Q 4678 3434 4678 2328 
Q 4678 1225 4090 567 
Q 3503 -91 2522 -91 
Q 1538 -91 948 565 
Q 359 1222 359 2328 
Q 359 3434 948 4092 
Q 1538 4750 2522 4750 
z
" transform="scale(0.015625)"/>
      </defs>
      <use xlink:href="#DejaVuSans-47"/>
      <use xlink:href="#DejaVuSans-57" transform="translate(77.490234 0)"/>
      <use xlink:href="#DejaVuSans-4f" transform="translate(176.367188 0)"/>
     </g>
    </g>
    <g id="line2d_65">
     <path d="M 348.949665 172.918442 
L 358.665974 172.918442 
L 368.382283 172.918442 
" style="fill: none; stroke: #22a022; stroke-width: 3.333333; stroke-linecap: square"/>
     <defs>
      <path id="mbb269d092c" d="M 0 -6 
L -1.347084 -1.854102 
L -5.706339 -1.854102 
L -2.179628 0.708204 
L -3.526712 4.854102 
L -0 2.291796 
L 3.526712 4.854102 
L 2.179628 0.708204 
L 5.706339 -1.854102 
L 1.347084 -1.854102 
z
" style="stroke: #22a022; stroke-width: 2; stroke-linejoin: bevel"/>
     </defs>
     <g>
      <use xlink:href="#mbb269d092c" x="358.665974" y="172.918442" style="fill-opacity: 0; stroke: #22a022; stroke-width: 2; stroke-linejoin: bevel"/>
     </g>
    </g>
    <g id="text_16">
     <!-- LBFGSB -->
     <g transform="translate(376.155331 176.319151) scale(0.097163 -0.097163)">
      <defs>
       <path id="DejaVuSans-42" d="M 1259 2228 
L 1259 519 
L 2272 519 
Q 2781 519 3026 730 
Q 3272 941 3272 1375 
Q 3272 1813 3026 2020 
Q 2781 2228 2272 2228 
L 1259 2228 
z
M 1259 4147 
L 1259 2741 
L 2194 2741 
Q 2656 2741 2882 2914 
Q 3109 3088 3109 3444 
Q 3109 3797 2882 3972 
Q 2656 4147 2194 4147 
L 1259 4147 
z
M 628 4666 
L 2241 4666 
Q 2963 4666 3353 4366 
Q 3744 4066 3744 3513 
Q 3744 3084 3544 2831 
Q 3344 2578 2956 2516 
Q 3422 2416 3680 2098 
Q 3938 1781 3938 1306 
Q 3938 681 3513 340 
Q 3088 0 2303 0 
L 628 0 
L 628 4666 
z
" transform="scale(0.015625)"/>
       <path id="DejaVuSans-46" d="M 628 4666 
L 3309 4666 
L 3309 4134 
L 1259 4134 
L 1259 2759 
L 3109 2759 
L 3109 2228 
L 1259 2228 
L 1259 0 
L 628 0 
L 628 4666 
z
" transform="scale(0.015625)"/>
      </defs>
      <use xlink:href="#DejaVuSans-4c"/>
      <use xlink:href="#DejaVuSans-42" transform="translate(55.712891 0)"/>
      <use xlink:href="#DejaVuSans-46" transform="translate(124.316406 0)"/>
      <use xlink:href="#DejaVuSans-47" transform="translate(181.835938 0)"/>
      <use xlink:href="#DejaVuSans-53" transform="translate(259.326172 0)"/>
      <use xlink:href="#DejaVuSans-42" transform="translate(322.802734 0)"/>
     </g>
    </g>
    <g id="line2d_66">
     <path d="M 348.949665 187.180163 
L 358.665974 187.180163 
L 368.382283 187.180163 
" style="fill: none; stroke: #d61e1f; stroke-width: 3; stroke-linecap: square"/>
     <defs>
      <path id="m5febf07974" d="M -2 6 
L 2 6 
L 2 2 
L 6 2 
L 6 -2 
L 2 -2 
L 2 -6 
L -2 -6 
L -2 -2 
L -6 -2 
L -6 2 
L -2 2 
z
" style="stroke: #d61e1f; stroke-width: 1.5; stroke-linejoin: miter"/>
     </defs>
     <g>
      <use xlink:href="#m5febf07974" x="358.665974" y="187.180163" style="fill-opacity: 0; stroke: #d61e1f; stroke-width: 1.5; stroke-linejoin: miter"/>
     </g>
    </g>
    <g id="text_17">
     <!-- SLO HBYRID -->
     <g transform="translate(376.155331 190.580871) scale(0.097163 -0.097163)">
      <defs>
       <path id="DejaVuSans-48" d="M 628 4666 
L 1259 4666 
L 1259 2753 
L 3553 2753 
L 3553 4666 
L 4184 4666 
L 4184 0 
L 3553 0 
L 3553 2222 
L 1259 2222 
L 1259 0 
L 628 0 
L 628 4666 
z
" transform="scale(0.015625)"/>
       <path id="DejaVuSans-59" d="M -13 4666 
L 666 4666 
L 1959 2747 
L 3244 4666 
L 3922 4666 
L 2272 2222 
L 2272 0 
L 1638 0 
L 1638 2222 
L -13 4666 
z
" transform="scale(0.015625)"/>
       <path id="DejaVuSans-49" d="M 628 4666 
L 1259 4666 
L 1259 0 
L 628 0 
L 628 4666 
z
" transform="scale(0.015625)"/>
      </defs>
      <use xlink:href="#DejaVuSans-53"/>
      <use xlink:href="#DejaVuSans-4c" transform="translate(63.476562 0)"/>
      <use xlink:href="#DejaVuSans-4f" transform="translate(115.564453 0)"/>
      <use xlink:href="#DejaVuSans-20" transform="translate(194.275391 0)"/>
      <use xlink:href="#DejaVuSans-48" transform="translate(226.0625 0)"/>
      <use xlink:href="#DejaVuSans-42" transform="translate(301.257812 0)"/>
      <use xlink:href="#DejaVuSans-59" transform="translate(364.361328 0)"/>
      <use xlink:href="#DejaVuSans-52" transform="translate(425.445312 0)"/>
      <use xlink:href="#DejaVuSans-49" transform="translate(494.927734 0)"/>
      <use xlink:href="#DejaVuSans-44" transform="translate(524.419922 0)"/>
     </g>
    </g>
    <g id="line2d_67">
     <path d="M 348.949665 201.441883 
L 358.665974 201.441883 
L 368.382283 201.441883 
" style="fill: none; stroke: #8c493c; stroke-width: 2.666667; stroke-linecap: square"/>
     <defs>
      <path id="m3112a186f1" d="M -0 6 
L 6 -6 
L -6 -6 
z
" style="stroke: #8c493c; stroke-linejoin: miter"/>
     </defs>
     <g>
      <use xlink:href="#m3112a186f1" x="358.665974" y="201.441883" style="fill-opacity: 0; stroke: #8c493c; stroke-linejoin: miter"/>
     </g>
    </g>
    <g id="text_18">
     <!-- SciPyDE -->
     <g transform="translate(376.155331 204.842591) scale(0.097163 -0.097163)">
      <defs>
       <path id="DejaVuSans-50" d="M 1259 4147 
L 1259 2394 
L 2053 2394 
Q 2494 2394 2734 2622 
Q 2975 2850 2975 3272 
Q 2975 3691 2734 3919 
Q 2494 4147 2053 4147 
L 1259 4147 
z
M 628 4666 
L 2053 4666 
Q 2838 4666 3239 4311 
Q 3641 3956 3641 3272 
Q 3641 2581 3239 2228 
Q 2838 1875 2053 1875 
L 1259 1875 
L 1259 0 
L 628 0 
L 628 4666 
z
" transform="scale(0.015625)"/>
       <path id="DejaVuSans-79" d="M 2059 -325 
Q 1816 -950 1584 -1140 
Q 1353 -1331 966 -1331 
L 506 -1331 
L 506 -850 
L 844 -850 
Q 1081 -850 1212 -737 
Q 1344 -625 1503 -206 
L 1606 56 
L 191 3500 
L 800 3500 
L 1894 763 
L 2988 3500 
L 3597 3500 
L 2059 -325 
z
" transform="scale(0.015625)"/>
      </defs>
      <use xlink:href="#DejaVuSans-53"/>
      <use xlink:href="#DejaVuSans-63" transform="translate(63.476562 0)"/>
      <use xlink:href="#DejaVuSans-69" transform="translate(118.457031 0)"/>
      <use xlink:href="#DejaVuSans-50" transform="translate(146.240234 0)"/>
      <use xlink:href="#DejaVuSans-79" transform="translate(206.542969 0)"/>
      <use xlink:href="#DejaVuSans-44" transform="translate(265.722656 0)"/>
      <use xlink:href="#DejaVuSans-45" transform="translate(342.724609 0)"/>
     </g>
    </g>
    <g id="line2d_68">
     <path d="M 348.949665 215.703603 
L 358.665974 215.703603 
L 368.382283 215.703603 
" style="fill: none; stroke: #e35fbb; stroke-width: 2.333333; stroke-linecap: square"/>
     <defs>
      <path id="mbc2cfec645" d="M -3 6 
L 0 3 
L 3 6 
L 6 3 
L 3 0 
L 6 -3 
L 3 -6 
L 0 -3 
L -3 -6 
L -6 -3 
L -3 0 
L -6 3 
z
" style="stroke: #e35fbb; stroke-linejoin: miter"/>
     </defs>
     <g>
      <use xlink:href="#mbc2cfec645" x="358.665974" y="215.703603" style="fill-opacity: 0; stroke: #e35fbb; stroke-linejoin: miter"/>
     </g>
    </g>
    <g id="text_19">
     <!-- PSO -->
     <g transform="translate(376.155331 219.104311) scale(0.097163 -0.097163)">
      <use xlink:href="#DejaVuSans-50"/>
      <use xlink:href="#DejaVuSans-53" transform="translate(60.302734 0)"/>
      <use xlink:href="#DejaVuSans-4f" transform="translate(123.779297 0)"/>
     </g>
    </g>
    <g id="line2d_69">
     <path d="M 348.949665 229.965323 
L 358.665974 229.965323 
L 368.382283 229.965323 
" style="fill: none; stroke: #11bdcf; stroke-width: 2; stroke-linecap: square"/>
     <defs>
      <path id="mf15308cd1f" d="M 0 -6 
L -6 6 
L 6 6 
z
" style="stroke: #11bdcf; stroke-linejoin: miter"/>
     </defs>
     <g>
      <use xlink:href="#mf15308cd1f" x="358.665974" y="229.965323" style="fill-opacity: 0; stroke: #11bdcf; stroke-linejoin: miter"/>
     </g>
    </g>
    <g id="text_20">
     <!-- SSA -->
     <g transform="translate(376.155331 233.366032) scale(0.097163 -0.097163)">
      <use xlink:href="#DejaVuSans-53"/>
      <use xlink:href="#DejaVuSans-53" transform="translate(63.476562 0)"/>
      <use xlink:href="#DejaVuSans-41" transform="translate(128.828125 0)"/>
     </g>
    </g>
    <g id="line2d_70">
     <path d="M 348.949665 244.227044 
L 358.665974 244.227044 
L 368.382283 244.227044 
" style="fill: none; stroke: #7f7f7f; stroke-width: 2; stroke-linecap: square"/>
     <defs>
      <path id="m3524781375" d="M -0 8.485281 
L 8.485281 0 
L 0 -8.485281 
L -8.485281 -0 
z
" style="stroke: #7f7f7f; stroke-linejoin: miter"/>
     </defs>
     <g>
      <use xlink:href="#m3524781375" x="358.665974" y="244.227044" style="fill-opacity: 0; stroke: #7f7f7f; stroke-linejoin: miter"/>
     </g>
    </g>
    <g id="text_21">
     <!-- GA -->
     <g transform="translate(376.155331 247.627752) scale(0.097163 -0.097163)">
      <use xlink:href="#DejaVuSans-47"/>
      <use xlink:href="#DejaVuSans-41" transform="translate(77.490234 0)"/>
     </g>
    </g>
    <g id="line2d_71">
     <path d="M 348.949665 258.488764 
L 358.665974 258.488764 
L 368.382283 258.488764 
" style="fill: none; stroke: #bcbd1a; stroke-width: 2; stroke-linecap: square"/>
     <defs>
      <path id="ma8a483b115" d="M -6 -0 
L 6 6 
L 6 -6 
z
" style="stroke: #bcbd1a; stroke-linejoin: miter"/>
     </defs>
     <g>
      <use xlink:href="#ma8a483b115" x="358.665974" y="258.488764" style="fill-opacity: 0; stroke: #bcbd1a; stroke-linejoin: miter"/>
     </g>
    </g>
    <g id="text_22">
     <!-- LSHADE -->
     <g transform="translate(376.155331 261.889472) scale(0.097163 -0.097163)">
      <use xlink:href="#DejaVuSans-4c"/>
      <use xlink:href="#DejaVuSans-53" transform="translate(55.712891 0)"/>
      <use xlink:href="#DejaVuSans-48" transform="translate(119.189453 0)"/>
      <use xlink:href="#DejaVuSans-41" transform="translate(194.384766 0)"/>
      <use xlink:href="#DejaVuSans-44" transform="translate(262.792969 0)"/>
      <use xlink:href="#DejaVuSans-45" transform="translate(339.794922 0)"/>
     </g>
    </g>
    <g id="line2d_72">
     <path d="M 348.949665 272.750484 
L 358.665974 272.750484 
L 368.382283 272.750484 
" style="fill: none; stroke-dasharray: 7.4,3.2; stroke-dashoffset: 0; stroke: #440154; stroke-width: 2"/>
     <defs>
      <path id="m2aa939776a" d="M 6 0 
L -6 -6 
L -6 6 
z
" style="stroke: #440154; stroke-linejoin: miter"/>
     </defs>
     <g>
      <use xlink:href="#m2aa939776a" x="358.665974" y="272.750484" style="fill-opacity: 0; stroke: #440154; stroke-linejoin: miter"/>
     </g>
    </g>
    <g id="text_23">
     <!-- NLSHADE RSP -->
     <g transform="translate(376.155331 276.151192) scale(0.097163 -0.097163)">
      <defs>
       <path id="DejaVuSans-4e" d="M 628 4666 
L 1478 4666 
L 3547 763 
L 3547 4666 
L 4159 4666 
L 4159 0 
L 3309 0 
L 1241 3903 
L 1241 0 
L 628 0 
L 628 4666 
z
" transform="scale(0.015625)"/>
      </defs>
      <use xlink:href="#DejaVuSans-4e"/>
      <use xlink:href="#DejaVuSans-4c" transform="translate(74.804688 0)"/>
      <use xlink:href="#DejaVuSans-53" transform="translate(130.517578 0)"/>
      <use xlink:href="#DejaVuSans-48" transform="translate(193.994141 0)"/>
      <use xlink:href="#DejaVuSans-41" transform="translate(269.189453 0)"/>
      <use xlink:href="#DejaVuSans-44" transform="translate(337.597656 0)"/>
      <use xlink:href="#DejaVuSans-45" transform="translate(414.599609 0)"/>
      <use xlink:href="#DejaVuSans-20" transform="translate(477.783203 0)"/>
      <use xlink:href="#DejaVuSans-52" transform="translate(509.570312 0)"/>
      <use xlink:href="#DejaVuSans-53" transform="translate(579.052734 0)"/>
      <use xlink:href="#DejaVuSans-50" transform="translate(642.529297 0)"/>
     </g>
    </g>
    <g id="line2d_73">
     <path d="M 348.949665 287.012204 
L 358.665974 287.012204 
L 368.382283 287.012204 
" style="fill: none; stroke-dasharray: 7.4,3.2; stroke-dashoffset: 0; stroke: #2500bb; stroke-width: 2"/>
     <defs>
      <path id="m91c176059b" d="M 0 -6 
L -5.706339 -1.854102 
L -3.526712 4.854102 
L 3.526712 4.854102 
L 5.706339 -1.854102 
z
" style="stroke: #2500bb; stroke-linejoin: miter"/>
     </defs>
     <g>
      <use xlink:href="#m91c176059b" x="358.665974" y="287.012204" style="fill-opacity: 0; stroke: #2500bb; stroke-linejoin: miter"/>
     </g>
    </g>
    <g id="text_24">
     <!-- JADE -->
     <g transform="translate(376.155331 290.412913) scale(0.097163 -0.097163)">
      <defs>
       <path id="DejaVuSans-4a" d="M 628 4666 
L 1259 4666 
L 1259 325 
Q 1259 -519 939 -900 
Q 619 -1281 -91 -1281 
L -331 -1281 
L -331 -750 
L -134 -750 
Q 284 -750 456 -515 
Q 628 -281 628 325 
L 628 4666 
z
" transform="scale(0.015625)"/>
      </defs>
      <use xlink:href="#DejaVuSans-4a"/>
      <use xlink:href="#DejaVuSans-41" transform="translate(27.742188 0)"/>
      <use xlink:href="#DejaVuSans-44" transform="translate(96.150391 0)"/>
      <use xlink:href="#DejaVuSans-45" transform="translate(173.152344 0)"/>
     </g>
    </g>
    <g id="line2d_74">
     <path d="M 348.949665 301.273925 
L 358.665974 301.273925 
L 368.382283 301.273925 
" style="fill: none; stroke-dasharray: 7.4,3.2; stroke-dashoffset: 0; stroke: #f800fd; stroke-width: 2"/>
     <defs>
      <path id="m10b67f5831" d="M -0 8.485281 
L 5.091169 0 
L 0 -8.485281 
L -5.091169 -0 
z
" style="stroke: #f800fd; stroke-linejoin: miter"/>
     </defs>
     <g>
      <use xlink:href="#m10b67f5831" x="358.665974" y="301.273925" style="fill-opacity: 0; stroke: #f800fd; stroke-linejoin: miter"/>
     </g>
    </g>
    <g id="text_25">
     <!-- jSO -->
     <g transform="translate(376.155331 304.674633) scale(0.097163 -0.097163)">
      <defs>
       <path id="DejaVuSans-6a" d="M 603 3500 
L 1178 3500 
L 1178 -63 
Q 1178 -731 923 -1031 
Q 669 -1331 103 -1331 
L -116 -1331 
L -116 -844 
L 38 -844 
Q 366 -844 484 -692 
Q 603 -541 603 -63 
L 603 3500 
z
M 603 4863 
L 1178 4863 
L 1178 4134 
L 603 4134 
L 603 4863 
z
" transform="scale(0.015625)"/>
      </defs>
      <use xlink:href="#DejaVuSans-6a"/>
      <use xlink:href="#DejaVuSans-53" transform="translate(27.783203 0)"/>
      <use xlink:href="#DejaVuSans-4f" transform="translate(91.259766 0)"/>
     </g>
    </g>
   </g>
  </g>
 </g>
 <defs>
  <clipPath id="p400faf776f">
   <rect x="22.78" y="25.56" width="430.412" height="289.88"/>
  </clipPath>
 </defs>
</svg>
